<svg xmlns="http://www.w3.org/2000/svg" width="26.957" height="20.047" viewBox="0 0 26.957 20.047">
  <g id="sensor" transform="translate(-9.999 -135.6)">
    <path id="Path_1855" data-name="Path 1855" d="M33.169,135.6l-1.312,1.329a13.218,13.218,0,0,1,0,17.357l1.342,1.362C38.219,150.358,38.208,140.87,33.169,135.6ZM30.1,138.708l-1.356,1.373a8.722,8.722,0,0,1,.014,11.061l1.342,1.364A10.673,10.673,0,0,0,30.1,138.708ZM15.1,136.929,13.787,135.6c-5.039,5.27-5.05,14.758-.033,20.047l1.342-1.362A13.214,13.214,0,0,1,15.1,136.929Zm1.752,1.78a10.68,10.68,0,0,0,0,13.8l1.342-1.364a8.726,8.726,0,0,1,.011-11.061Zm6.621,2.525a4.413,4.413,0,1,0,4.349,4.412A4.381,4.381,0,0,0,23.472,141.234Z" transform="translate(0)" fill="#0078d4"/>
  </g>
</svg>
